<?xml version="1.0" encoding="UTF-8"?>
<svg xmlns="http://www.w3.org/2000/svg" viewBox="0 0 50 50" stroke-width= "0">
  <path d="m40.141,21.632v18.819c0,1.381-1.121,2.505-2.502,2.505H12.361c-1.381,0-2.502-1.125-2.502-2.505v-18.819h30.283Z" style="fill: #fff; "/>
  <path d="m40.141,15.628v3.869H9.859v-3.869c0-1.381,1.121-2.505,2.502-2.505h1.224c.591,0,1.068-.477,1.068-1.068v-2.274c0-1.509,1.228-2.737,2.737-2.737s2.737,1.228,2.737,2.737v2.274c0,.591.48,1.068,1.068,1.068h7.613c.587,0,1.068-.477,1.068-1.068v-2.274c0-.74.288-1.434.819-1.954.527-.52,1.224-.787,1.968-.783,1.48.025,2.687,1.31,2.687,2.861v2.15c0,.591.477,1.068,1.068,1.068h1.224c1.381,0,2.502,1.125,2.502,2.505Z" style="fill: #fff; "/>
</svg>