<?xml version="1.0" encoding="UTF-8"?>
<svg xmlns="http://www.w3.org/2000/svg" viewBox="0 0 50 50" stroke-width= "0">
  <path d="m40.876,13.423c0,.064-.007.132-.025.199-.014.021-.025.043-.032.068-.42,1.125-3.142,2.534-7.662,3.356-.149.025-.299.053-.452.078-.025.007-.053.011-.082.014-.199.032-.406.068-.612.096-.228.036-.459.068-.69.096-.235.032-.473.06-.715.089-.231.028-.466.053-.705.075-.206.021-.416.039-.63.057-.263.021-.534.043-.808.06-.189.014-.381.025-.577.036-.117.007-.235.014-.356.018-.27.014-.545.025-.822.032-.555.018-1.125.028-1.708.028s-1.153-.011-1.708-.028c-.278-.007-.552-.018-.822-.032-.121-.004-.238-.011-.356-.018-.196-.011-.388-.021-.577-.036-.274-.018-.545-.039-.808-.06-.214-.018-.423-.036-.63-.057-.238-.021-.473-.046-.705-.075-.242-.028-.48-.057-.715-.089-.231-.028-.463-.06-.69-.096-.206-.028-.413-.064-.612-.096-.028-.004-.053-.007-.082-.014-.153-.025-.306-.053-.452-.078-4.516-.822-7.242-2.231-7.662-3.356-.007-.025-.018-.046-.032-.068-.018-.068-.025-.135-.025-.199,0-1.751,6.185-4.299,15.876-4.299s15.876,2.548,15.876,4.299Z"
  style="fill: #686869;"/>
  <path d="m40.15,17.074l-4.039,20.816c-.014.068-.021.135-.021.203,0,.833-3.772,2.783-11.09,2.783s-11.09-1.95-11.09-2.783c0-.068-.007-.135-.021-.203l-4.039-20.816c3.167,1.719,8.548,2.662,14.036,2.772.374.011.744.014,1.114.014s.74-.004,1.114-.014c5.488-.11,10.869-1.053,14.036-2.772Z"
  style="fill: #282929; "/>
</svg>