<?xml version="1.0" encoding="UTF-8"?>
<svg xmlns="http://www.w3.org/2000/svg" viewBox="0 0 50 50" stroke-width="3">
  <path d="m39.686,10.805h-20.9c-1.35,0-2.65.58-3.55,1.58l-8.47,9.43c-1.63,1.82-1.63,4.56,0,6.37l8.47,9.43c.9,1.01,2.2,1.58,3.55,1.58h20.9c2.63,0,4.77-2.14,4.77-4.76V15.575c0-2.63-2.14-4.77-4.77-4.77Zm-5.35,17.97c.42.42.42,1.1,0,1.51-.21.21-.48.32-.75.32-.28,0-.55-.11-.76-.32l-3.77-3.77-3.78,3.77c-.21.21-.48.32-.75.32-.28,0-.55-.11-.76-.32-.42-.41-.42-1.09,0-1.51l3.78-3.77-3.78-3.78c-.42-.42-.42-1.09,0-1.51.42-.42,1.1-.42,1.51,0l3.78,3.78,3.77-3.78c.42-.42,1.1-.42,1.51,0,.42.42.42,1.09,0,1.51l-3.77,3.78,3.77,3.77Z" style="fill: #fff; "/>
</svg>