<?xml version="1.0" encoding="UTF-8"?>
<svg xmlns="http://www.w3.org/2000/svg" viewBox="0 0 50 50" stroke-width= "0">
  <path d="m43.469,26.107v11.986c0,2.356-1.915,4.271-4.271,4.271h-3.438v-8.776c0-5.933-4.826-10.762-10.762-10.762s-10.762,4.829-10.762,10.762v8.776h-3.434c-2.356,0-4.271-1.915-4.271-4.271v-11.986c0-1.142.441-2.214,1.249-3.022l14.2-14.196c.804-.808,1.879-1.253,3.018-1.253s2.214.445,3.022,1.253l14.196,14.196c.808.808,1.253,1.879,1.253,3.022Z"
  style="fill: #282929; "/>
  <path d="m33.625,33.588v8.776h-17.254v-8.776c0-4.755,3.872-8.627,8.627-8.627s8.627,3.872,8.627,8.627Z" 
  style="fill: #686869; "/>
</svg>