<svg width="70" height="68" viewBox="0 0 70 68" fill="none" xmlns="http://www.w3.org/2000/svg">
<ellipse cx="35" cy="34" rx="35" ry="34" fill="#FFF9EB"/>
<path d="M47.4167 23H28.0417C27.1504 23 26.4529 23.4472 25.9879 24.1244L19 34.5L25.9879 44.8628C26.4529 45.54 27.1504 46 28.0417 46H47.4167C48.8375 46 50 44.85 50 43.4444V25.5556C50 24.15 48.8375 23 47.4167 23ZM47.4167 43.4444H28.1321L22.1 34.5L28.1192 25.5556H47.4167V43.4444ZM32.4462 40.8889L37.0833 36.3017L41.7204 40.8889L43.5417 39.0872L38.9046 34.5L43.5417 29.9128L41.7204 28.1111L37.0833 32.6983L32.4462 28.1111L30.625 29.9128L35.2621 34.5L30.625 39.0872L32.4462 40.8889Z" fill="#343434"/>
</svg>
