<svg width="360" height="19" viewBox="0 0 360 19" fill="none" xmlns="http://www.w3.org/2000/svg">
<path d="M10.8037 0.843138C10.3378 0.377206 9.58657 0.377206 9.12064 0.843138L1.21881 8.74496C0.847963 9.11581 0.847963 9.71486 1.21881 10.0857L9.12064 17.9875C9.58657 18.4535 10.3378 18.4535 10.8037 17.9875C11.2696 17.5216 11.2696 16.7704 10.8037 16.3045L3.91931 9.41058L10.8132 2.51669C11.2696 2.06027 11.2696 1.29956 10.8037 0.843138Z" fill="#343434"/>
<path d="M350.017 17.978C350.483 18.444 351.234 18.444 351.7 17.978L359.602 10.0762C359.973 9.70537 359.973 9.10632 359.602 8.73547L351.7 0.833644C351.234 0.367713 350.483 0.367713 350.017 0.833644C349.551 1.29958 349.551 2.05077 350.017 2.51671L356.902 9.4106L350.008 16.3045C349.551 16.7609 349.551 17.5216 350.017 17.978Z" fill="#343434"/>
</svg>
