<svg width="185" height="68" viewBox="0 0 185 68" fill="none" xmlns="http://www.w3.org/2000/svg">
<path d="M40.1894 60.7309C40.0608 60.8595 39.9322 61.0203 39.8036 61.1489C35.1416 65.7463 29.7402 67.9968 23.3099 67.9968C16.7831 67.9968 11.4138 65.7785 6.81613 61.181C2.21846 56.5836 0 51.1825 0 44.6882V3.02208C0 2.12189 0.257212 1.41459 0.83594 0.868044C1.41467 0.289348 2.08985 0 2.99009 0C3.89034 0 4.59767 0.289348 5.20855 0.868044C5.78728 1.44674 6.07664 2.12189 6.07664 3.02208V28.7098L8.71307 26.5236C12.7963 23.1157 17.7155 21.3796 23.3099 21.3796C27.5539 21.3796 31.3156 22.3441 34.7558 24.3374V31.8926C33.3733 30.6066 31.7979 29.61 30.0295 28.8384C25.8177 27.0058 20.6734 27.0058 16.5259 28.8384C14.436 29.7386 12.6034 30.9924 11.0601 32.5356C9.54901 34.0788 8.32725 35.9113 7.42701 38.001C6.52676 40.0908 6.07664 42.3413 6.07664 44.6882C6.07664 47.0351 6.52676 49.2856 7.42701 51.3754C8.32725 53.4329 9.54901 55.2655 11.0601 56.8408C12.6034 58.384 14.436 59.6378 16.5259 60.538C18.6157 61.4382 20.8985 61.9205 23.3099 61.9205C25.6891 61.9205 27.9397 61.4382 30.0295 60.538C32.1194 59.6378 33.952 58.384 35.4953 56.8087C36.0097 56.2943 36.4599 55.7477 36.8778 55.2012C37.7138 57.1623 38.8069 58.9949 40.1894 60.7309Z" fill="#3467B4"/>
<path d="M73.6592 56.6158C74.5594 58.4483 75.7169 60.1522 77.1316 61.7597C72.6303 65.9714 67.4218 67.9968 61.2808 67.9968C54.7862 67.9968 49.4169 65.7785 44.8193 61.181C44.6585 61.0203 44.5299 60.8917 44.4334 60.7309C44.0155 60.3451 43.6618 59.9593 43.3403 59.5414C42.9545 59.1235 42.6008 58.6734 42.3114 58.2233C40.8003 56.1978 39.675 54.0438 38.9998 51.6968C38.7105 50.7967 38.4854 49.8643 38.3246 48.8998C38.0996 47.5495 37.971 46.1671 37.971 44.6882V3.02208C37.971 2.12189 38.2603 1.41459 38.8391 0.868044C39.3856 0.289348 40.093 0 40.9932 0C41.8935 0 42.6008 0.289348 43.2117 0.868044C43.7904 1.44674 44.0798 2.12189 44.0798 3.02208V28.7098L44.337 28.5169L46.7162 26.5236C50.7994 23.1157 55.7186 21.3796 61.2808 21.3796C67.4218 21.3796 72.6303 23.405 77.1316 27.5845C75.7169 29.192 74.5594 30.9281 73.6592 32.7606C73.627 32.6963 73.5627 32.632 73.4984 32.5677C71.9552 30.9924 70.1225 29.7386 68.0327 28.8384C63.8208 27.0058 58.6766 27.0058 54.4969 28.8384C52.4392 29.7386 50.6065 30.9924 49.0633 32.5356C48.581 33.05 48.0987 33.5644 47.7129 34.1431C47.2949 34.6575 46.9091 35.1719 46.6197 35.7184C46.2018 36.3293 45.8803 36.9722 45.5909 37.6474C45.5266 37.7438 45.4944 37.8724 45.4301 38.001C44.5299 40.0908 44.0798 42.3413 44.0798 44.6882C44.0798 47.0351 44.5299 49.2856 45.4301 51.3754C45.4944 51.5039 45.5266 51.6004 45.5909 51.729C45.9124 52.4041 46.2339 53.0471 46.6197 53.658C46.9413 54.2045 47.3271 54.7511 47.7129 55.2655C48.1309 55.812 48.581 56.3264 49.0633 56.8408C50.6065 58.384 52.4392 59.6378 54.4969 60.538C56.5867 61.4382 58.8695 61.9205 61.2808 61.9205C63.6601 61.9205 65.9428 61.4382 68.0327 60.538C70.1225 59.6378 71.9552 58.384 73.4984 56.8087C73.5627 56.7444 73.627 56.6801 73.6592 56.6158Z" fill="#3467B4"/>
<path d="M116.742 47.7103L120.665 43.0164C120.504 40.4123 119.957 37.9689 119.025 35.7184C118.286 33.918 117.321 32.2462 116.067 30.6709H110.537C108.833 30.6709 107.386 30.0601 106.164 28.8384C104.943 27.6167 104.332 26.1378 104.332 24.4017C104.332 23.7265 104.428 23.0835 104.653 22.4727C102.403 21.7333 99.9913 21.3796 97.4192 21.3796C91.2461 21.3796 86.0375 23.405 81.6006 27.5845C81.3756 27.7774 81.1505 27.9703 80.9254 28.1954C80.7647 28.3561 80.6039 28.5169 80.4432 28.7098C80.0574 29.0956 79.7037 29.4814 79.35 29.8993C77.9032 31.6675 76.7136 33.5322 75.8777 35.5255C75.5883 36.2007 75.3632 36.8437 75.1382 37.5509C74.881 38.3547 74.688 39.1584 74.5273 40.0265V40.0908C74.2379 41.5375 74.1093 43.0807 74.1093 44.6882C74.1093 46.2957 74.2379 47.8389 74.5273 49.2856V49.3499C74.688 50.218 74.881 51.0217 75.1382 51.8255C75.3632 52.5006 75.5883 53.1757 75.8455 53.8187C76.7136 55.812 77.871 57.7089 79.35 59.4771C79.7037 59.8951 80.0574 60.2808 80.4432 60.6666C80.6039 60.8595 80.7647 61.0203 80.9254 61.181C81.1505 61.4061 81.3756 61.599 81.6006 61.7919C86.0375 65.9714 91.2461 67.9968 97.4192 67.9968C99.9913 67.9968 102.371 67.6431 104.621 66.9037C104.396 66.2929 104.3 65.6499 104.3 64.9747C104.3 63.528 104.718 62.242 105.554 61.1167L107.804 58.4162C106.422 59.5093 104.943 60.3451 103.367 60.9238C99.9913 62.1455 95.683 62.2741 91.9534 61.0203C90.2172 60.4416 88.6097 59.6057 87.1628 58.5448C86.4234 57.9982 85.716 57.3874 85.0408 56.7122C84.655 56.2943 84.2371 55.8763 83.8834 55.3941C83.6905 55.169 83.4976 54.944 83.3368 54.7189C83.1439 54.4617 82.9831 54.2045 82.8224 53.9152C81.9864 52.6292 81.3434 51.2468 80.8933 49.8L80.2503 47.7103H116.742ZM80.8933 39.6085C81.3113 38.1296 81.9543 36.7151 82.7902 35.4291V35.3969C82.951 35.1397 83.1117 34.8825 83.3047 34.6253C83.4654 34.4003 83.6583 34.1752 83.8512 33.9502C84.2049 33.4679 84.5907 33.05 85.0087 32.632C85.6517 31.9569 86.3591 31.346 87.1307 30.7995C88.6097 29.7707 90.2172 28.9348 91.9856 28.324C95.4901 27.1666 99.3483 27.1666 102.853 28.3561C104.589 28.9348 106.197 29.7707 107.643 30.7995C109.09 31.8926 110.376 33.1464 111.469 34.6253C112.563 36.1042 113.399 37.776 113.945 39.5764L114.588 41.6661H80.2824L80.8933 39.6085Z" fill="#3467B4"/>
<path d="M136.451 27.4559H110.537C109.701 27.4559 109.058 27.1666 108.447 26.5557C107.836 25.977 107.547 25.2697 107.547 24.4017C107.547 24.1445 107.579 23.9194 107.643 23.6944C107.74 23.1478 107.997 22.6977 108.415 22.2798L108.447 22.2477C108.962 21.7333 109.508 21.4439 110.216 21.4118C110.312 21.3796 110.408 21.3796 110.537 21.3796H136.419C135.905 22.2798 135.647 23.2764 135.647 24.4017C135.647 25.5269 135.905 26.5557 136.451 27.4559Z" fill="#3467B4"/>
<path d="M136.065 67.3859C136.162 67.611 136.258 67.8039 136.387 67.9968H110.537C110.441 67.9968 110.312 67.9968 110.216 67.9646C109.894 67.9646 109.605 67.9003 109.347 67.7717C108.962 67.611 108.672 67.4181 108.383 67.1287C108.126 66.8394 107.901 66.5179 107.74 66.1321C107.676 66.0035 107.643 65.8749 107.611 65.7463C107.547 65.4891 107.515 65.2319 107.515 64.9747C107.515 64.2353 107.708 63.5923 108.061 63.11L112.434 57.8696L113.431 56.6801L114.46 55.4584L118.286 50.861L120.118 48.6426C120.44 48.4819 120.729 48.2568 120.986 47.9996C121.469 47.5174 121.822 46.9708 122.047 46.36L123.912 44.1417V44.1095L137.094 28.3561C137.191 28.5169 137.319 28.6776 137.48 28.8384C138.67 30.06 140.149 30.6709 141.82 30.6709H143.107L116.935 61.9205H136.323C135.84 62.8528 135.583 63.8495 135.583 64.9747C135.583 65.8106 135.744 66.6465 136.065 67.3859Z" fill="#3467B4"/>
<path d="M174.904 64.9426C174.904 66.0678 175.162 67.0966 175.708 67.9968H141.82C141.37 67.9968 140.985 67.9325 140.631 67.7717C140.277 67.611 139.956 67.4181 139.698 67.1287C139.409 66.8394 139.216 66.5179 139.023 66.1321C138.895 65.7785 138.798 65.3927 138.798 64.9747C138.798 64.2353 139.023 63.5923 139.377 63.11L140.374 61.9205L141.724 60.313L143.042 58.7055L169.117 27.4559H141.82C141.017 27.4559 140.341 27.1666 139.731 26.5557C139.152 25.977 138.863 25.2697 138.863 24.4017C138.863 23.5336 139.152 22.8585 139.731 22.2477C140.341 21.6368 141.017 21.3796 141.82 21.3796H175.708C175.162 22.2798 174.904 23.3086 174.904 24.4338V30.0279L149.022 60.956L148.219 61.9205H174.904V64.9426Z" fill="#3467B4"/>
<path d="M184.196 24.4338V64.9104C184.164 65.7785 183.875 66.4858 183.264 67.0966C182.621 67.7396 181.817 68.0289 181.013 67.9968C180.499 67.9646 179.952 67.8039 179.47 67.4824C179.309 67.3859 179.148 67.2574 178.988 67.0966C178.698 66.8073 178.505 66.5179 178.345 66.1643V66.1321C178.184 65.7785 178.12 65.3605 178.12 64.9426V24.4338C178.12 23.9837 178.216 23.5658 178.377 23.18C178.505 22.8263 178.73 22.537 178.988 22.2477C179.148 22.0869 179.309 21.9583 179.47 21.8619C179.92 21.5404 180.434 21.3796 181.045 21.3796H181.142C181.978 21.3796 182.653 21.6368 183.264 22.2477C183.875 22.8585 184.164 23.5658 184.196 24.4338Z" fill="#3467B4"/>
<path d="M185 10.8988C185 11.9919 184.614 12.8921 183.875 13.6315C182.331 15.1747 179.952 15.2068 178.409 13.6315C177.637 12.8921 177.251 11.9919 177.251 10.8988C177.251 9.80568 177.637 8.93764 178.409 8.16604C179.181 7.39445 180.049 7.0408 181.142 7.0408C182.235 7.0408 183.103 7.39445 183.875 8.16604C184.646 8.93764 185 9.80568 185 10.8988Z" fill="#3467B4"/>
</svg>
